<?xml version="1.0" encoding="UTF-8" standalone="no"?>
<svg
   width="550"
   height="705"
   viewBox="0 0 550 705"
   fill="none"
   version="1.1"
   id="svg22"
   xmlns="http://www.w3.org/2000/svg"
   xmlns:svg="http://www.w3.org/2000/svg">
  <g
     clip-path="url(#clip0_2_2)"
     id="g22"
     transform="matrix(0.56850393,0,0,0.56850393,0.00431919,3.2920518e-6)">
    <path
       d="M 549.01,7.62939e-6 H 0.0100098 L 0.179993,450.31 C 0.156227,464.651 3.4301,478.806 9.7486,491.681 16.0671,504.555 25.261,515.805 36.62,524.56 L 37.43,525.2 274.74,705 511.97,524.93 c 11.531,-8.783 20.885,-20.104 27.338,-33.084 6.453,-12.979 9.831,-27.271 9.872,-41.766 z"
       fill="#ffffff"
       id="path1" />
    <path
       d="m 411.43,139.49 -61.08,62.55 v 426.48 l 61.08,-46.36 z"
       fill="#e8151e"
       id="path2" />
    <path
       d="m 472.62,535.68 29.39,-22.3 c 19.22,-14.58 31.67,-36.21 31.66,-60.28 L 533.51,14.43 472.62,76.78 Z"
       fill="#e8151e"
       id="path3" />
    <path
       d="M 167.77,604.89 V 389.02 l -61.08,62.55 v 107.04 z"
       fill="#e8151e"
       id="path4" />
    <path
       d="M 289.79,674.49 V 264.06 l -61.08,62.56 v 324.44 l 46.01,34.87 z"
       fill="#e8151e"
       id="path5" />
    <path
       d="M 549.01,7.62939e-6 H 0.0100098 L 0.179993,450.31 C 0.162805,464.416 3.33647,478.343 9.46338,491.049 15.5903,503.755 24.5117,514.91 35.56,523.68 c 0.35,0.28 0.69,0.57 1.05,0.84 l 0.81,0.64 237.31,179.8 237.24,-180.03 c 11.531,-8.783 20.885,-20.104 27.338,-33.084 6.453,-12.979 9.831,-27.271 9.872,-41.766 z M 355.54,79.54 79.73,362.1 79.62,79.68 Z M 502.01,511.8 274.72,684.31 48.21,512.68 l 484.32,-496 0.16,433.39 c -0.033,11.954 -2.817,23.74 -8.137,34.445 -5.321,10.705 -13.034,20.041 -22.543,27.285 z"
       fill="#282a6f"
       id="path6" />
    <path
       d="m 33.63,32.8 6.19,-19.05 6.2,19.05 20.03,-0.01 -16.2,11.78 6.2,19.06 L 39.83,51.86 23.63,63.64 29.81,44.58 13.6,32.81 Z"
       fill="#ffffff"
       id="path7" />
    <path
       d="m 233.19,32.73 6.18,-19.06 6.2,19.05 h 20.04 l -16.21,11.78 6.2,19.05 -16.21,-11.77 -16.2,11.78 6.18,-19.05 -16.21,-11.77 z"
       fill="#ffffff"
       id="path8" />
    <path
       d="m 33.78,434.77 6.19,-19.06 6.2,19.05 H 66.2 L 50,446.54 56.2,465.59 39.98,453.82 23.78,465.6 29.96,446.55 13.75,434.78 Z"
       fill="#ffffff"
       id="path9" />
    <path
       d="m 33.71,234.34 6.18,-19.06 6.2,19.05 20.04,-0.01 -16.21,11.79 6.2,19.05 -16.21,-11.77 -16.21,11.78 6.19,-19.06 -16.21,-11.77 z"
       fill="#ffffff"
       id="path10" />
    <path
       d="m 173.38,306.85 6.19,-19.06 6.2,19.05 h 20.03 l -16.2,11.78 6.2,19.05 -16.22,-11.77 -16.2,11.78 6.18,-19.05 -16.21,-11.77 z"
       fill="#ffffff"
       id="path11" />
    <path
       d="m 307.6,172.44 6.18,-19.05 6.2,19.05 20.03,-0.01 -16.2,11.78 6.2,19.06 -16.21,-11.77 -16.21,11.78 6.18,-19.06 -16.21,-11.77 z"
       fill="#ffffff"
       id="path12" />
    <path
       d="m 432.74,32.65 6.19,-19.05 6.2,19.05 20.03,-0.01 -16.2,11.78 6.2,19.06 -16.22,-11.77 -16.2,11.78 6.18,-19.06 -16.21,-11.77 z"
       fill="#ffffff"
       id="path13" />
    <path
       d="m 189.25,220.57 c -0.198,-1.413 -0.578,-2.794 -1.13,-4.11 -4.25,-9.75 -8.78,-7.91 -11.47,-21.21 -0.444,-2.475 -1.028,-4.922 -1.75,-7.33 -0.49,-1.4 -1.45,-4.23 -1.21,-6.48 0.49,-4.69 2,-10 2.69,-14.76 0,-0.06 0,-0.11 0,-0.17 0.763,-0.199 1.456,-0.603 2.005,-1.169 0.548,-0.566 0.931,-1.272 1.105,-2.041 0.2,-1.5 -0.21,-2.08 -3.75,-3 l -0.12,-0.14 c -2.11,-3.84 -5.59,-5.17 -9.49,-5.93 -1.309,-0.201 -2.645,-0.14 -3.93,0.18 -1.153,0.15 -2.324,-0.063 -3.35,-0.61 -2,-1.11 -6.33,-5.38 -7.58,-3.49 -0.791,1.225 -1.275,2.623 -1.41,4.075 -0.136,1.451 0.08,2.915 0.63,4.265 2,4.74 5.15,6 1.83,11.54 -2,3.31 -6,8.22 -6.94,12.58 -2.703,-1.727 -5.032,-3.978 -6.85,-6.62 -0.67,-1.742 -1.605,-3.371 -2.77,-4.83 v 14.21 c 1.77,2.27 3.81,4.8 5.66,7 -1.81,-1.19 -3.89,-2.64 -5.66,-3.88 v 11.56 c 1.42,1 3.53,2.24 5,3 1.347,0.798 2.779,1.442 4.27,1.92 0.66,8.076 4.177,15.653 9.92,21.37 -0.94,3.81 -1.87,8.45 -1.33,10.51 1.83,6.95 8,12.44 8.54,16.54 0.25,1.83 -1.76,2.71 -3.25,3.92 l -0.67,0.44 22,0.43 0.33,-0.44 c 0.345,-0.633 0.428,-1.377 0.23,-2.07 -1.74,-10.91 -1.91,-12.49 4.12,-19.06 1.897,-2.154 3.23,-4.744 3.88,-7.54 0.375,-0.012 0.745,-0.101 1.085,-0.26 0.34,-0.159 0.644,-0.386 0.894,-0.667 0.25,-0.281 0.44,-0.609 0.559,-0.965 0.118,-0.357 0.163,-0.734 0.132,-1.108 -0.375,-2.01 -1.128,-3.931 -2.22,-5.66 z m -17.48,32.9 c -0.25,1.39 -1.06,2.13 -2.17,3.29 0.443,-2.106 0.422,-4.283 -0.06,-6.38 -0.37,-1.77 -1.74,-6.52 -1.63,-7.5 0.14,-1.2 4.19,8.72 3.86,10.59 z"
       fill="#000000"
       id="path14" />
    <path
       d="m 143.21,257.16 c -0.938,0.008 -1.868,-0.17 -2.736,-0.524 -0.869,-0.354 -1.658,-0.877 -2.323,-1.538 -0.665,-0.662 -1.193,-1.448 -1.551,-2.315 -0.359,-0.866 -0.543,-1.795 -0.54,-2.733 v -91.9 c -0.002,-1.388 0.32,-2.758 0.94,-4 l 1.32,-2 c -5.321,0.541 -10.684,0.521 -16,-0.06 l 1.19,2 c 0.649,1.263 0.991,2.66 1,4.08 v 91.84 c 0.004,0.935 -0.177,1.862 -0.533,2.727 -0.356,0.865 -0.879,1.651 -1.54,2.313 -0.661,0.662 -1.446,1.186 -2.311,1.543 -0.864,0.357 -1.791,0.54 -2.726,0.537 l -19.9,0.79 c -0.2917,0 -0.5715,0.116 -0.7778,0.322 -0.2063,0.206 -0.3222,0.486 -0.3222,0.778 0,0.292 0.1159,0.572 0.3222,0.778 0.2063,0.206 0.4861,0.322 0.7778,0.322 l 81.92,-0.22 2,-2 z"
       fill="#7e4f3a"
       id="path15" />
    <path
       d="m 130.39,152.84 c 23.71,0 42.93,-14.618 42.93,-32.65 0,-18.032 -19.22,-32.65 -42.93,-32.65 -23.71,0 -42.93,14.618 -42.93,32.65 0,18.032 19.22,32.65 42.93,32.65 z"
       fill="#006a3f"
       id="path16" />
    <path
       d="m 117.3,132.1 c -0.38,-0.151 -0.786,-0.224 -1.195,-0.215 -0.409,0.009 -0.812,0.099 -1.185,0.265 -0.766,0.346 -1.367,0.978 -1.673,1.761 -0.307,0.783 -0.295,1.655 0.033,2.429 0.165,0.376 0.403,0.715 0.7,0.998 0.297,0.283 0.647,0.505 1.03,0.652 0.361,0.135 0.744,0.203 1.13,0.2 0.466,0.001 0.926,-0.098 1.35,-0.29 0.566,-0.256 1.043,-0.674 1.371,-1.202 0.329,-0.528 0.493,-1.141 0.473,-1.762 -0.021,-0.62 -0.225,-1.221 -0.587,-1.726 -0.362,-0.505 -0.865,-0.891 -1.447,-1.11 z"
       fill="#e8151e"
       id="path17" />
    <path
       d="m 135.49,128.78 c 0.398,0.153 0.823,0.223 1.249,0.208 0.426,-0.016 0.845,-0.117 1.231,-0.298 0.386,-0.164 0.735,-0.403 1.027,-0.704 0.291,-0.3 0.52,-0.656 0.673,-1.046 0.153,-0.391 0.226,-0.807 0.216,-1.226 -0.01,-0.419 -0.104,-0.832 -0.276,-1.214 -0.168,-0.373 -0.408,-0.709 -0.707,-0.989 -0.299,-0.28 -0.65,-0.498 -1.033,-0.641 -0.8,-0.303 -1.688,-0.278 -2.47,0.07 -0.772,0.34 -1.377,0.971 -1.685,1.757 -0.307,0.785 -0.291,1.66 0.045,2.433 0.164,0.376 0.401,0.716 0.698,1 0.297,0.283 0.648,0.504 1.032,0.65 z"
       fill="#e8151e"
       id="path18" />
    <path
       d="m 156.07,119.61 c 0.398,0.153 0.823,0.223 1.249,0.208 0.426,-0.016 0.845,-0.117 1.231,-0.298 0.758,-0.343 1.349,-0.972 1.644,-1.75 0.294,-0.778 0.267,-1.641 -0.074,-2.4 -0.359,-0.785 -1.013,-1.396 -1.82,-1.7 -0.372,-0.158 -0.771,-0.24 -1.175,-0.24 -0.404,0 -0.803,0.082 -1.175,0.24 -0.769,0.361 -1.368,1.008 -1.668,1.804 -0.301,0.795 -0.28,1.676 0.058,2.456 0.163,0.381 0.399,0.725 0.696,1.014 0.297,0.288 0.649,0.515 1.034,0.666 z"
       fill="#e8151e"
       id="path19" />
    <path
       d="m 104.44,119.26 c -0.38,-0.151 -0.786,-0.224 -1.195,-0.215 -0.409,0.009 -0.812,0.099 -1.185,0.265 -0.766,0.346 -1.367,0.978 -1.673,1.761 -0.307,0.783 -0.295,1.655 0.033,2.429 0.165,0.376 0.403,0.715 0.7,0.998 0.297,0.283 0.647,0.505 1.03,0.652 0.362,0.132 0.745,0.199 1.13,0.2 0.466,0.001 0.926,-0.098 1.35,-0.29 0.566,-0.256 1.043,-0.674 1.372,-1.202 0.328,-0.528 0.492,-1.141 0.472,-1.761 -0.021,-0.621 -0.225,-1.222 -0.587,-1.727 -0.362,-0.505 -0.865,-0.891 -1.447,-1.11 z"
       fill="#e8151e"
       id="path20" />
    <path
       d="m 126.76,111.68 c -0.167,-0.374 -0.406,-0.711 -0.705,-0.991 -0.299,-0.28 -0.651,-0.497 -1.035,-0.639 -0.8,-0.303 -1.688,-0.278 -2.47,0.07 -0.772,0.34 -1.377,0.971 -1.685,1.757 -0.307,0.785 -0.291,1.66 0.045,2.433 0.165,0.376 0.403,0.715 0.7,0.998 0.297,0.283 0.647,0.505 1.03,0.652 0.398,0.153 0.823,0.223 1.249,0.208 0.426,-0.016 0.845,-0.117 1.231,-0.298 0.386,-0.164 0.735,-0.403 1.027,-0.704 0.291,-0.3 0.52,-0.656 0.673,-1.046 0.153,-0.391 0.226,-0.807 0.216,-1.226 -0.01,-0.419 -0.104,-0.832 -0.276,-1.214 z"
       fill="#e8151e"
       id="path21" />
    <path
       d="m 148.35,141.62 c 0.357,0.139 0.737,0.21 1.12,0.21 0.466,0 0.927,-0.103 1.35,-0.3 0.386,-0.164 0.735,-0.403 1.026,-0.704 0.292,-0.3 0.521,-0.656 0.674,-1.046 0.153,-0.391 0.226,-0.807 0.216,-1.226 -0.01,-0.419 -0.104,-0.832 -0.276,-1.214 -0.167,-0.373 -0.407,-0.708 -0.706,-0.987 -0.299,-0.278 -0.65,-0.493 -1.034,-0.633 -0.588,-0.227 -1.231,-0.276 -1.847,-0.14 -0.615,0.136 -1.178,0.45 -1.616,0.903 -0.439,0.454 -0.734,1.026 -0.849,1.646 -0.115,0.62 -0.045,1.261 0.202,1.841 0.164,0.378 0.403,0.718 0.702,1.002 0.299,0.283 0.652,0.504 1.038,0.648 z"
       fill="#e8151e"
       id="path22" />
  </g>
  <defs
     id="defs22">
    <clipPath
       id="clip0_2_2">
      <rect
         width="549.17999"
         height="705"
         fill="#ffffff"
         id="rect22"
         x="0"
         y="0" />
    </clipPath>
  </defs>
</svg>
