<?xml version="1.0" encoding="UTF-8" standalone="no"?>
<!-- Generator: Adobe Illustrator 23.0.1, SVG Export Plug-In . SVG Version: 6.00 Build 0)  -->

<svg
   version="1.1"
   id="Layer_1"
   x="0px"
   y="0px"
   viewBox="0 0 100 100"
   xml:space="preserve"
   width="100"
   height="100"
   xmlns="http://www.w3.org/2000/svg"
   xmlns:svg="http://www.w3.org/2000/svg"><defs
   id="defs3" />
<style
   type="text/css"
   id="style1">
	.st0{fill-rule:evenodd;clip-rule:evenodd;}
	.st1{fill-rule:evenodd;clip-rule:evenodd;fill:#FFFFFF;}
</style>

<g
   id="g3"
   transform="matrix(0.17106478,0,0,0.17106478,-1.6662302,-0.97302345)">
	<path
   class="st0"
   d="M 179.3,46.9 C 146.1,64 114.8,80.1 73.1,80.3 L 51.5,80.4 50.1,102 c -9.3,148.4 5.3,359.9 239.3,482.6 l 10.7,5.6 10.7,-5.6 C 544.8,461.9 559.4,250.4 550.1,102 L 548.7,80.4 527.1,80.3 C 485.4,80.2 454.1,64 420.9,47 385.8,28.8 349.3,10 300.2,10 251.1,10 214.6,28.8 179.3,46.9"
   id="path1"
   style="clip-rule:evenodd;fill-rule:evenodd" />
	<path
   class="st1"
   d="M 300.2,564 C 102.5,460.3 61.4,290.9 73.2,103.3 166.5,103 212,33.1 300.2,33.1 c 88.2,0 133.7,69.9 227,70.2 11.8,187.6 -29.3,357 -227,460.7"
   id="path2"
   style="clip-rule:evenodd;fill:#ffffff;fill-rule:evenodd" />
	<path
   class="st0"
   d="m 203.9,94.8 c 32.3,-16.6 60.2,-30.9 96.2,-30.9 36.1,0 64,14.3 96.2,30.9 28.9,14.9 61.1,31.2 101.3,37 0.3,9.1 0.5,18 0.5,26.8 0,177.8 -62.5,293.7 -198,370.2 -135.5,-76.5 -198,-192.4 -198,-370.2 0,-8.8 0.2,-17.7 0.5,-26.8 40.2,-5.8 72.4,-22.1 101.3,-37"
   id="path3"
   style="clip-rule:evenodd;fill-rule:evenodd" />
	<polygon
   class="st1"
   points="153.8,227.9 265.6,227.9 300.2,121.6 334.7,227.9 446.5,227.9 356.1,293.6 390.6,400 300.2,334.2 209.7,400 244.3,293.6 "
   id="polygon3"
   style="clip-rule:evenodd;fill:#ffffff;fill-rule:evenodd" />
</g></svg>
