<?xml version="1.0" encoding="UTF-8" standalone="no"?>
<!-- Generator: Adobe Illustrator 19.0.0, SVG Export Plug-In . SVG Version: 6.00 Build 0)  -->

<svg
   version="1.1"
   id="layer"
   x="0px"
   y="0px"
   viewBox="-153 -46 652 652"
   style="enable-background:new -153 -46 652 652;"
   xml:space="preserve"
   sodipodi:docname="paris-saint-germain-logo-vector2.svg"
   inkscape:version="1.4.2 (f4327f4, 2025-05-13)"
   xmlns:inkscape="http://www.inkscape.org/namespaces/inkscape"
   xmlns:sodipodi="http://sodipodi.sourceforge.net/DTD/sodipodi-0.dtd"
   xmlns="http://www.w3.org/2000/svg"
   xmlns:svg="http://www.w3.org/2000/svg"><defs
   id="defs1" /><sodipodi:namedview
   id="namedview1"
   pagecolor="#ffffff"
   bordercolor="#000000"
   borderopacity="0.25"
   inkscape:showpageshadow="2"
   inkscape:pageopacity="0.0"
   inkscape:pagecheckerboard="0"
   inkscape:deskcolor="#d1d1d1"
   inkscape:zoom="0.77147239"
   inkscape:cx="325.35189"
   inkscape:cy="193.78529"
   inkscape:window-width="1366"
   inkscape:window-height="705"
   inkscape:window-x="-8"
   inkscape:window-y="-8"
   inkscape:window-maximized="1"
   inkscape:current-layer="layer" />
<style
   type="text/css"
   id="style1">
	.st0{fill:#004071;}
	.st1{fill:#EC1C24;}
	.st2{fill:#C4A361;}
	.st3{fill:#FFFFFF;}
</style>
<path
   id="XMLID_185_"
   class="st0"
   d="m 174.59623,-42.888469 c -178.5252497,0 -323.8847,145.229899 -323.8847,323.884699 0,178.52524 145.3594503,323.88468 323.8847,323.88468 178.52524,0 323.88468,-145.35944 323.88468,-323.88468 0,-178.6548 -145.22989,-323.884699 -323.88468,-323.884699"
   style="stroke-width:1.29554" />
<path
   id="XMLID_174_"
   class="st0"
   d="m 174.33712,334.76108 c -38.60706,0 -69.9591,29.7974 -69.9591,66.46115 0,12.95537 3.88662,25.00389 10.62342,35.23865 18.39665,7.12546 38.4775,11.01207 59.33568,11.01207 20.98773,0 40.93902,-3.88661 59.33567,-11.01207 6.7368,-10.23476 10.62341,-22.28328 10.62341,-35.23865 0.12956,-36.66375 -31.22248,-66.46115 -69.95908,-66.46115"
   style="stroke-width:1.29554" />
<path
   id="XMLID_218_"
   class="st1"
   d="m 235.48654,285.40106 c 20.33996,33.68401 46.50984,62.70407 77.21412,87.44886 -13.2145,20.08085 -30.70428,37.18197 -51.17378,49.87824 0.77731,-4.40483 1.16598,-8.80966 1.16598,-13.34405 0,-45.60296 -39.51393,-82.52581 -88.22619,-82.52581 -48.71226,0 -88.226191,36.92285 -88.226191,82.52581 0,4.53439 0.388661,9.06878 1.165984,13.34405 C 66.936951,410.03189 49.447178,392.93077 36.232682,372.84992 66.807397,348.10513 92.97728,319.08507 113.31724,285.40106 h 122.1693 m -3.75706,-6.4777 c -25.91077,-45.34386 -41.19813,-98.97917 -42.36412,-161.68324 -4.92304,-0.38866 -9.97564,-0.64777 -15.02824,-0.64777 -5.18216,0 -10.10521,0.25911 -15.15781,0.77733 -1.16598,62.57451 -16.45334,116.20982 -42.36412,161.55368 h 114.91429"
   style="stroke-width:1.29554" />
<path
   id="XMLID_217_"
   class="st2"
   d="m 180.29659,420.9144 0.25911,0.64778 c -1.16598,2.33197 -3.1093,5.18215 -5.57081,7.12547 l -0.51822,0.2591 -0.51821,-0.2591 c -2.46153,-1.94332 -4.40483,-4.7935 -5.57082,-7.12547 l 0.2591,-0.64778 c 1.94332,-1.16597 3.3684,-3.10928 3.88662,-5.3117 l 1.94331,-1.55464 1.9433,1.55464 c 0.51822,2.33197 1.94332,4.14573 3.88662,5.3117 m 5.57081,-37.0524 c 0,-6.73681 -8.80966,-27.85408 -11.53028,-27.85408 l -0.64778,0.25911 c -3.23884,2.59107 -10.88251,21.24683 -10.88251,27.59497 0,5.0526 10.1052,18.2671 10.1052,25.52211 l 1.42509,1.29555 1.29554,-1.29555 v 0 C 175.7622,402.1291 185.8674,388.9146 185.8674,383.862 m -17.23066,24.87434 c -4.79349,-12.56672 -13.08494,-19.43307 -21.63549,-19.43307 -6.4777,0 -11.7894,5.18215 -11.7894,11.7894 0,6.47769 5.3117,11.65985 11.7894,11.65985 1.9433,0 4.01617,-0.90688 4.92305,-2.07286 1.6842,-1.94332 1.29554,-3.88662 1.16598,-4.14573 l -0.77733,-0.38866 h -0.64777 c -2.20241,0 -3.88661,-1.81376 -3.88661,-3.88662 0,-2.20241 1.81375,-3.88661 3.88661,-3.88661 3.88662,0 10.62342,3.75706 14.38049,11.65985 v 0 0 l 1.29553,0.77731 1.4251,-1.42509 -0.12956,-0.64777 m 32.64758,-19.43307 c -8.55056,0 -16.842,6.86635 -21.63549,19.43307 l -0.12956,0.64777 1.42509,1.42509 1.29554,-0.77731 v 0 0 0 c 3.6275,-7.90279 10.49386,-11.65985 14.25093,-11.65985 2.20242,0 3.88662,1.81375 3.88662,3.88661 0,2.20242 -1.81376,3.88662 -3.88662,3.88662 h -0.64777 l -0.77733,0.38866 c -0.12955,0.38866 -0.51821,2.33197 1.16599,4.14573 1.03643,1.03643 2.97974,2.07286 4.92304,2.07286 6.4777,0 11.78941,-5.18216 11.78941,-11.65985 0.12955,-6.60725 -5.18215,-11.7894 -11.65985,-11.7894"
   style="stroke-width:1.29554" />
<path
   id="XMLID_220_"
   class="st3"
   d="m 174.20756,-19.698325 c -80.323403,0 -155.853313,31.222484 -212.59791,88.096636 -56.744595,56.744599 -88.09664,132.274509 -88.09664,212.597919 0,80.3234 31.352045,155.85331 88.09664,212.5979 56.744597,56.7446 132.274507,88.09664 212.59791,88.09664 80.3234,0 155.85332,-31.22248 212.59792,-88.09664 56.74459,-56.87415 88.09663,-132.2745 88.09663,-212.5979 0,-80.32341 -31.22248,-155.85332 -88.09663,-212.597919 -56.7446,-56.874152 -132.27452,-88.096636 -212.59792,-88.096636 m 0,11.9189566 c 159.48082,0 288.77559,129.2947684 288.77559,288.7755984 0,159.48082 -129.29477,288.77558 -288.77559,288.77558 -159.610375,0 -288.90514,-129.29476 -288.90514,-288.77558 0,-159.48083 129.294765,-288.7755984 288.90514,-288.7755984 M 255.56739,104.02563 c -4.66393,-2.20242 -9.45743,-4.145728 -14.25092,-5.959481 l 28.50185,-68.663555 c 4.7935,1.813755 9.58699,3.757062 14.25093,5.829924 L 255.56739,104.02563 M 173.17113,25.645532 v 24.615237 h 27.59498 c 6.7368,0 12.30761,-5.570817 12.30761,-12.307619 0,-6.736801 -5.57081,-12.307618 -12.30761,-12.307618 h -27.59498 m 0,60.112999 v 0 c -5.0526,0 -10.1052,0.259107 -15.02825,0.647768 V 12.431036 h 42.75278 c 13.99182,0 27.33587,11.400741 27.33587,25.39256 0,11.659849 -9.19833,21.505943 -20.33996,24.485682 l 19.43308,31.092931 c -6.21858,-1.813754 -12.56673,-3.238847 -18.91487,-4.404832 L 192.08599,63.34571 h -18.7853 V 85.758531 M -6.0018816,98.454811 12.135661,115.03771 32.346067,92.754439 C 36.880452,87.701838 36.49179,79.928606 31.568742,75.39422 26.516142,70.859835 18.742909,71.248496 14.208523,76.171543 L -6.0018816,98.454811 M 38.694207,139.26428 c -3.62751,3.49796 -7.255018,6.99591 -10.623419,10.75298 L -25.953179,100.78678 5.0101979,66.714111 C 14.467631,56.3498 31.309635,55.054261 41.673946,64.511695 c 10.364309,9.457433 10.364309,26.169883 0.906876,36.534195 l -20.858174,23.06059 16.971559,15.1578 M 320.60345,76.819313 c 11.14163,-2.591078 31.61113,17.748881 35.49775,31.481597 3.23885,-2.46153 10.49387,-7.77324 10.49387,-7.77324 -8.68011,-24.615234 -43.14144,-49.230471 -59.46523,-33.813559 -9.71654,9.198325 -4.14573,23.319698 4.27528,32.129361 l 8.16189,8.680108 c 8.421,8.80967 15.67602,17.61933 8.93922,23.19014 -7.12547,5.95948 -27.20632,-8.93921 -39.38438,-34.461326 l -10.75297,8.161896 c 2.59107,6.7368 8.421,16.45335 16.19423,24.74479 8.93922,9.32788 18.52621,15.41691 27.20632,17.10111 6.7368,1.29554 13.60315,0.25911 18.00799,-3.88662 11.14163,-10.3643 7.12546,-25.39256 -10.49387,-43.918759 l -7.25502,-7.643679 C 314.2553,82.39013 317.49415,77.596636 320.60345,76.819313 M 87.536017,72.932696 C 94.791035,69.952957 102.17561,67.36188 109.68973,65.159463 L 88.702002,41.191997 87.536017,72.932696 m 4.534386,-48.194042 57.003707,62.574523 c -5.82993,0.777323 -11.65985,1.6842 -17.36022,2.979739 L 118.7585,75.39422 c -10.88252,2.850186 -21.505942,6.607248 -31.740698,11.012079 l -0.777323,19.692191 c -5.311709,2.59108 -10.36431,5.44126 -15.416911,8.55056 l 5.570816,-84.339579 c 5.182155,-1.943308 10.36431,-3.886616 15.676019,-5.570817 M 197.78636,118.27655 c 80.32341,11.40075 142.12061,80.3234 142.12061,163.75611 0,26.68809 -6.34814,51.9511 -17.61932,74.36392 C 249.3488,301.59529 205.04138,224.64029 197.78636,118.27655 m 63.74052,304.45161 c 0.77731,-4.40483 1.16598,-8.80966 1.16598,-13.4736 0,-45.60297 -39.51393,-82.52582 -88.22619,-82.52582 -48.71226,0 -88.226191,36.92285 -88.226191,82.52582 0,4.53438 0.388661,9.06877 1.165984,13.4736 C 66.936951,410.03189 49.447178,392.93077 36.232682,372.72036 66.807397,347.97557 92.97728,318.95551 113.31724,285.2715 h 122.42842 c 20.33995,33.68401 46.50984,62.70407 77.2141,87.44886 -13.4736,20.21041 -30.96338,37.18197 -51.43288,50.0078 m -27.72454,13.73272 c -18.39664,7.12546 -38.47749,11.01207 -59.33567,11.01207 -20.98773,0 -40.93902,-3.88661 -59.33568,-11.01207 -6.7368,-10.23476 -10.62341,-22.28328 -10.62341,-35.23865 0,-36.66375 31.35203,-66.46115 69.95909,-66.46115 38.60705,0 69.95909,29.7974 69.95909,66.46115 0,12.95537 -3.88662,25.00389 -10.62342,35.23865 M 8.8968144,282.03266 c 0,-83.43271 61.7971996,-152.48492 142.1206056,-163.75611 C 143.7624,224.64029 99.454974,301.72485 26.516142,356.39658 15.374508,333.98376 8.8968144,308.72075 8.8968144,282.03266 M 174.33712,116.59235 c 5.0526,0 10.1052,0.25911 15.02824,0.77733 1.16599,62.70407 16.45335,116.20982 42.36412,161.55368 H 116.94475 c 25.91077,-45.34386 41.19813,-98.97917 42.36412,-161.55368 4.92304,-0.51822 9.97564,-0.77733 15.02825,-0.77733 m 0,-11.91895 c -97.813182,0 -177.3592624,79.54608 -177.3592624,177.35926 0,97.81318 79.5460804,177.35925 177.3592624,177.35925 97.81317,0 177.35925,-79.54607 177.35925,-177.35925 0,-97.81318 -79.54608,-177.35926 -177.35925,-177.35926 m -144.19347,347.4635 -9.586987,4.53438 6.607248,5.70037 2.979739,-10.23475 m -3.497955,27.07676 -3.627508,-2.72063 2.979739,-9.8461 -9.457433,-8.03235 -9.3278789,4.53439 -3.1092935,-2.97973 27.7245304,-13.08495 3.368401,2.85019 -8.550557,29.27918 m 8.550557,6.08903 15.546465,-23.57881 3.3684,2.20242 -15.546465,23.5788 -3.3684,-2.20241 m 30.963376,-13.73272 4.793493,26.29944 v 0 l 9.846095,-18.65575 3.497955,1.81374 -12.825834,24.61525 -3.497955,-1.4251 -4.793493,-26.55855 v 0 l -10.105202,18.78532 -3.497955,-1.94331 12.955387,-24.74478 3.627509,1.81374 m 47.934932,20.59908 -1.29554,3.75705 -9.19832,-3.23884 -7.902788,22.67192 -3.757062,-1.29553 7.902786,-22.67193 -9.198325,-3.10929 1.295539,-3.75707 22.15371,7.64369 m 61.01988,20.72861 12.69628,0.25911 -0.12956,7.38457 c -0.12955,5.0526 -5.57081,8.1619 -12.56672,8.03234 -7.38457,-0.12955 -15.02826,-5.31171 -14.8987,-14.76914 0.12956,-7.90279 6.60725,-14.25093 15.41692,-14.12138 6.60724,0.12956 10.1052,3.62752 11.65984,5.18216 l -2.85018,2.85019 c -1.29554,-1.29554 -3.49796,-3.88662 -8.421,-4.01617 -7.38458,-0.12956 -11.65985,4.66394 -11.78941,10.36431 -0.12955,5.44126 4.14573,10.3643 11.14163,10.49386 4.7935,0.12956 8.29145,-2.07286 8.29145,-4.40483 v -3.1093 l -8.6801,-0.12954 0.12955,-4.01618 m 43.271,-16.842 0.51821,4.01617 -18.5262,2.72063 1.03643,7.25502 9.32787,-1.29554 0.51822,4.01617 -9.32788,1.29554 1.16599,8.421 19.17397,-2.72063 0.51822,4.01616 -23.19015,3.3684 -3.88661,-27.46542 22.67193,-3.6275 m 14.51003,0.38866 2.33197,7.90279 11.7894,-3.62752 c 2.85019,-0.90687 4.01616,-2.85018 3.23885,-5.44126 -0.90689,-2.97974 -3.3684,-2.97974 -5.57082,-2.33197 l -11.7894,3.49796 m 10.62342,-7.38457 c 4.27527,-1.29555 8.93921,-0.38866 10.62341,5.0526 1.6842,5.82993 -1.55464,8.68011 -3.75706,9.58699 l 8.68011,9.32788 -4.14572,1.55465 -8.55056,-9.45744 -9.97564,2.97974 3.3684,11.14163 -3.88663,1.03644 -8.03233,-26.55855 15.67602,-4.66394 m 61.01987,-25.91078 2.07287,10.36432 7.12546,-5.05261 -9.19833,-5.31171 m 25.0039,9.97566 -3.49795,2.72063 -8.55056,-5.18216 -10.10521,7.12546 1.94332,10.1052 -3.62752,2.20242 -5.82991,-29.7974 3.6275,-2.59107 26.04033,15.41692 m -8.68011,-29.14964 18.91487,20.33997 -2.97974,2.59108 -18.78532,-20.2104 2.85019,-2.72065 m 11.01208,-10.88251 26.6881,1.81375 v 0 l -15.67602,-14.12137 2.72063,-2.97974 20.59906,18.5262 -2.33196,2.97974 -26.9472,-1.81375 v 0 l 15.80556,14.25093 -2.85018,2.85018 -20.72863,-18.65576 2.72064,-2.85018 m -47.02806,37.18196 13.08494,24.48568 -3.49795,1.94331 -9.45743,-17.23067 v 0 l -0.64778,19.43309 -16.06467,-10.88253 v 0 l 8.421,17.74887 -3.62751,1.55466 -12.04851,-25.0039 3.6275,-1.81376 16.32379,11.01208 0.51822,-19.69219 3.3684,-1.55464 M 16.151831,434.51756 v 0 0.12956 l -2.850185,1.6842 -0.129554,0.12956 v -0.12956 C 11.358338,430.24229 4.6215364,422.3395 -0.0424032,422.3395 h -0.51821576 l -2.20241504,1.6842 c -0.5182157,1.03643 -0.5182157,2.85019 1.5546462,5.70038 l 2.5910777,3.49795 c 3.8866165,5.18215 5.7003699,9.58699 5.1821553,12.82583 l -2.8501861,4.40483 -3.7570623,1.03643 -3.1092934,-0.51821 c -3.2388466,-1.03643 -6.8663544,-3.88662 -9.8460934,-8.03234 -2.97974,-4.01618 -4.66394,-8.03234 -5.31171,-10.62342 v 0 h 0.129554 l 2.979739,-2.72063 v 0.12956 c 3.368401,10.23475 10.1052027,17.36021 14.1213734,17.36021 l 1.81375348,-0.51821 1.68420042,-2.46153 c 0.5182157,-2.46152 -1.68420042,-5.70037 -4.0161697,-8.80966 l -2.9797392,-4.01617 c -2.0728619,-2.72063 -3.1092934,-5.82993 -2.7206319,-8.29145 l 2.3319704,-3.88661 3.8866165,-1.29554 c 6.34814,0 15.0282496,8.29144 17.2306646,16.71244 m 112.064099,77.34368 0.90688,-4.01618 9.8461,2.20242 -0.90688,4.01617 -9.8461,-2.20241"
   style="stroke-width:1.29554" />
</svg>
