<?xml version="1.0" encoding="UTF-8" standalone="no"?>
<!-- Generator: Adobe Illustrator 23.0.1, SVG Export Plug-In . SVG Version: 6.00 Build 0)  -->

<svg
   version="1.1"
   id="Layer_1"
   x="0px"
   y="0px"
   viewBox="0 0 100 100"
   xml:space="preserve"
   width="100"
   height="100"
   xmlns="http://www.w3.org/2000/svg"
   xmlns:svg="http://www.w3.org/2000/svg"><defs
   id="defs3"><linearGradient
     id="SVGID_13_"
     gradientUnits="userSpaceOnUse"
     x1="-105.7861"
     y1="103.4482"
     x2="-104.7861"
     y2="103.4482"
     gradientTransform="matrix(-70.1956,121.5824,-121.5824,-70.1956,5384.5176,20151.176)">
										<stop
   offset="0"
   style="stop-color:#231F20"
   id="stop18" />
										<stop
   offset="1"
   style="stop-color:#939598"
   id="stop19" />
									</linearGradient></defs>
<style
   type="text/css"
   id="style1">
	.st0{fill-rule:evenodd;clip-rule:evenodd;}
	.st1{fill-rule:evenodd;clip-rule:evenodd;fill:#FFFFFF;}
</style>

<g
   id="g32"
   transform="matrix(0.24818267,0,0,0.24818267,0.65505988,0.67924439)">
	<g
   id="g31">
		<g
   id="g2">
			<path
   fill="#005696"
   d="M 198.4,0 C 89,0 0,89 0,198.4 c 0,109.4 89,198.4 198.4,198.4 109.4,0 198.4,-89 198.4,-198.4 C 396.8,89 307.8,0 198.4,0"
   id="path1" />
		</g>
		<g
   id="g30">
			<g
   id="g6">
				<g
   opacity="0.3"
   id="g4">
					<g
   id="g3">
						<defs
   id="defs2" />
					</g>
				</g>
				<g
   id="g5">
					<path
   fill="#ffffff"
   d="m 95.3,66.5 -19,20.9 33.1,30.1 c 2.1,-2.3 4.2,-4.4 6.5,-6.6 l -10.3,-9.4 12.8,-14.1 C 124.2,81 124.2,70.8 117.8,65 111.5,59.3 101.1,60.1 95.3,66.5 M 112,82.5 99.6,96.1 88.5,86 100.9,72.4 c 2.8,-3.1 7.6,-3.3 10.6,-0.5 3.1,2.7 3.3,7.5 0.5,10.6 m 27,-38.3 -3.4,51.7 c 3.1,-1.9 6.2,-3.6 9.4,-5.2 l 0.5,-12 c 6.2,-2.7 12.7,-5 19.4,-6.8 l 7.9,9.1 c 3.5,-0.8 7,-1.4 10.6,-1.8 L 148.6,40.8 c -3.2,1.1 -6.4,2.2 -9.6,3.4 m 6.9,26.1 0.8,-19.5 12.8,14.7 c -4.7,1.4 -9.2,3 -13.6,4.8 M 232,48.8 c 0,-8.6 -8.1,-15.6 -16.7,-15.6 h -26.2 v 45.4 c 3,-0.2 6.1,-0.4 9.2,-0.4 v 0 -13.8 h 11.5 l 10,15.7 c 3.9,0.7 7.8,1.6 11.6,2.7 l -11.9,-19 C 226.3,62 232,56 232,48.8 m -16.7,7.6 h -16.9 v -15 h 16.9 c 4.2,0 7.5,3.4 7.5,7.5 0,4.1 -3.4,7.5 -7.5,7.5 m 74.4,25 4.5,4.7 c 10.7,11.3 13.2,20.5 6.4,26.9 -2.7,2.5 -6.9,3.2 -11.1,2.3 -5.3,-1 -11.2,-4.8 -16.7,-10.5 -4.8,-5 -8.4,-11 -10,-15.1 l 6.6,-5 c 7.4,15.7 19.7,24.8 24.1,21.1 4.1,-3.4 -0.4,-8.8 -5.5,-14.2 l -5,-5.3 c -5.2,-5.5 -8.6,-14.1 -2.6,-19.7 10,-9.5 31.1,5.6 36.4,20.7 0,0 -4.4,3.3 -6.4,4.8 -2.4,-8.4 -14.9,-20.9 -21.8,-19.3 -1.8,0.4 -3.9,3.3 1.1,8.6 M 266.3,47.2 248.8,89.3 C 246,88 243,86.8 240.1,85.7 l 17.5,-42.1 c 2.9,1.1 5.8,2.3 8.7,3.6"
   id="path3" />
				</g>
			</g>
			<g
   id="g8">
				<g
   id="g7">
					<path
   fill="#b79651"
   id="SVGID_3_"
   d="m 197.6,280.4 c -0.3,1.4 -1.2,2.5 -2.4,3.3 -0.2,0.1 -0.2,0.2 -0.1,0.4 0.7,1.4 1.9,3.2 3.4,4.4 0.2,0.2 0.3,0.2 0.3,0.2 0,0 0.1,0 0.3,-0.2 1.5,-1.2 2.7,-3 3.4,-4.4 0.1,-0.2 0.1,-0.3 -0.1,-0.4 -1.2,-0.7 -2.1,-1.9 -2.4,-3.3 -0.1,-0.5 -0.6,-0.9 -1.2,-0.9 -0.6,-0.1 -1.1,0.3 -1.2,0.9" />
				</g>
			</g>
			<g
   id="g10">
				<g
   id="g9">
					<path
   fill="#b79651"
   id="SVGID_5_"
   d="m 198.4,244 c -2,1.6 -6.7,13 -6.7,16.9 0,3.1 6.2,11.2 6.2,15.6 v 0 c 0,0.4 0.4,0.8 0.8,0.8 0.5,0 0.8,-0.4 0.8,-0.8 v 0 c 0,-4.4 6.2,-12.5 6.2,-15.6 0,-4.1 -5.4,-17.1 -7.1,-17.1 0.1,0 -0.1,0.1 -0.2,0.2" />
				</g>
			</g>
			<g
   id="g12">
				<g
   id="g11">
					<path
   fill="#b79653"
   id="SVGID_7_"
   d="m 174.8,271.4 c 0,4 3.2,7.2 7.2,7.2 1.2,0 2.4,-0.6 3,-1.2 1,-1.2 0.8,-2.3 0.7,-2.6 -0.1,-0.3 -0.4,-0.2 -0.5,-0.2 -0.1,0 -0.3,0 -0.4,0 -1.3,0 -2.4,-1.1 -2.4,-2.4 0,-1.3 1.1,-2.4 2.4,-2.4 2.4,0 6.5,2.3 8.8,7.1 v 0 0 c 0.1,0.3 0.5,0.5 0.8,0.5 0.5,0 0.9,-0.4 0.9,-0.9 0,-0.1 0,-0.3 -0.1,-0.4 -2.9,-7.7 -8,-11.9 -13.2,-11.9 -3.9,0 -7.2,3.2 -7.2,7.2" />
				</g>
			</g>
			<g
   id="g14">
				<g
   id="g13">
					<path
   fill="#b79651"
   id="SVGID_9_"
   d="m 202.1,276.1 c -0.1,0.1 -0.1,0.2 -0.1,0.4 0,0.5 0.4,0.9 0.9,0.9 0.3,0 0.6,-0.2 0.8,-0.5 v 0 0 c 2.2,-4.8 6.4,-7.1 8.8,-7.1 1.3,0 2.4,1.1 2.4,2.4 0,1.3 -1.1,2.4 -2.4,2.4 -0.1,0 -0.3,0 -0.4,0 -0.1,0 -0.4,-0.1 -0.5,0.2 -0.1,0.2 -0.3,1.4 0.7,2.6 0.6,0.7 1.8,1.2 3,1.2 4,0 7.2,-3.2 7.2,-7.2 0,-4 -3.2,-7.2 -7.2,-7.2 -5.3,0 -10.3,4.2 -13.2,11.9" />
				</g>
			</g>
			<g
   id="g29">
				<path
   fill="#ffffff"
   d="m 199,90.9 c -59.5,0 -107.8,48.3 -107.8,107.7 0,59.4 48.4,107.7 107.8,107.7 59.5,0 107.8,-48.3 107.8,-107.7 C 306.9,139.3 258.5,90.9 199,90.9 m -89.8,152.9 c -6.8,-13.6 -10.7,-28.9 -10.7,-45.1 0,-50.7 37.6,-92.6 86.4,-99.5 -4.5,64.6 -31.4,111.4 -75.7,144.6 m 125.9,48.6 c -11.2,4.3 -23.4,6.7 -36.1,6.7 -12.7,0 -24.9,-2.4 -36.1,-6.7 -4.1,-6.2 -6.5,-13.5 -6.5,-21.4 0,-22.3 19.1,-40.4 42.6,-40.4 23.5,0 42.6,18.1 42.6,40.4 0,7.9 -2.4,15.2 -6.5,21.4 m 53.8,-48.6 c -44.3,-33.2 -71.2,-80 -75.7,-144.6 48.8,6.9 86.4,48.8 86.4,99.5 0,16.2 -3.8,31.5 -10.7,45.1 M 328.2,68.9 C 293.7,34.4 247.8,15.4 198.9,15.4 150.1,15.4 104.1,34.4 69.6,68.9 35.1,103.4 16,149.3 16,198 c 0,48.8 19,94.6 53.6,129.1 34.5,34.5 80.4,53.5 129.3,53.5 48.8,0 94.7,-19 129.3,-53.5 34.5,-34.5 53.6,-80.4 53.6,-129.1 0,-48.7 -19.1,-94.6 -53.6,-129.1 M 198.9,373.4 c -97,0 -175.6,-78.7 -175.6,-175.8 0,-97.1 78.6,-175.7 175.6,-175.7 97,0 175.6,78.7 175.6,175.7 0,97.2 -78.6,175.8 -175.6,175.8"
   id="path13" />
				<path
   fill="#ef4043"
   d="m 283.5,254.1 c -8.1,12.3 -18.8,22.8 -31.4,30.6 0.5,-2.7 0.7,-5.4 0.7,-8.2 0,-27.9 -24.2,-50.6 -54.1,-50.6 -29.9,0 -54.1,22.6 -54.1,50.6 0,2.8 0.2,5.5 0.7,8.2 -12.6,-7.8 -23.3,-18.3 -31.4,-30.6 18.8,-15.1 34.8,-32.9 47.2,-53.6 h 75 c 12.6,20.7 28.6,38.5 47.4,53.6 M 208,97.6 c -3,-0.3 -6.1,-0.4 -9.2,-0.4 -3.1,0 -6.2,0.2 -9.3,0.4 -0.7,38.4 -10.1,71.2 -25.9,99 h 70.3 C 218.1,168.8 208.7,135.9 208,97.6"
   id="path14" />
				<g
   opacity="0.8"
   id="g16">
					<g
   id="g15">
						<path
   fill="none"
   stroke="#ffffff"
   stroke-width="0.244"
   stroke-miterlimit="10"
   d="m 283.5,254.1 c -8.1,12.3 -18.8,22.8 -31.4,30.6"
   id="path15" />
					</g>
				</g>
				<g
   opacity="0.7"
   id="g18">
					<g
   id="g17">
						<path
   fill="#897438"
   d="m 212.4,269.8 c -2.4,0 -6.5,2.3 -8.8,7.1 v 0 0 c -0.2,0.3 -0.5,0.5 -0.8,0.5 -0.4,0 -0.7,-0.2 -0.8,-0.6 v 0 c 0.1,-0.1 0.1,-0.3 0.2,-0.4 0.2,0.2 0.4,0.3 0.7,0.3 0.3,0 0.6,-0.2 0.8,-0.5 v 0 0 c 2.2,-4.8 6.4,-7.1 8.8,-7.1 1.3,0 2.4,1.1 2.4,2.4 0,0.1 0,0.2 0,0.3 -0.2,-1.1 -1.2,-2 -2.5,-2 m -26.5,5.2 c 0,0.1 0,0.2 -0.1,0.4 v 0 c -0.1,0.4 -0.3,0.8 -0.7,1.3 -0.6,0.7 -1.8,1.2 -3,1.2 -3.7,0 -6.8,-2.9 -7.1,-6.5 0,0.1 0,0.2 0,0.3 0,-0.1 0,-0.2 0,-0.3 0,4 3.2,7.2 7.2,7.2 1.2,0 2.4,-0.6 3,-1.2 0.5,-0.6 0.7,-1.2 0.8,-1.7 v 0 c 0,-0.1 0,-0.2 0,-0.3 v -0.1 -0.1 c -0.1,-0.1 -0.1,-0.1 -0.1,-0.2 m 36.6,-3.9 c 0,0.1 0,0.2 0,0.3 -0.3,3.7 -3.4,6.5 -7.1,6.5 -1.2,0 -2.4,-0.6 -3,-1.2 -0.4,-0.5 -0.6,-0.9 -0.7,-1.3 v 0 c 0,0.1 0,0.1 -0.1,0.3 0.1,0.5 0.3,1.1 0.8,1.7 0.6,0.7 1.8,1.2 3,1.2 4,0 7.2,-3.2 7.2,-7.1 v 0 c -0.1,-0.2 -0.1,-0.3 -0.1,-0.4 m -24.5,5.4 c 0,0.4 0.4,0.8 0.8,0.8 0.5,0 0.8,-0.4 0.8,-0.8 v 0 c 0,-4.3 6,-12.2 6.2,-15.4 0,-0.1 0,-0.1 0,-0.2 0,-0.1 0,-0.3 0,-0.5 0,0.1 0,0.2 0,0.3 -0.5,3.3 -6.2,10.9 -6.2,15.2 v 0 c 0,0.4 -0.4,0.8 -0.8,0.8 -0.5,0 -0.8,-0.4 -0.8,-0.8 v 0 c 0,-4.2 -5.7,-11.8 -6.2,-15.2 0,0.1 0,0.3 -0.1,0.4 0,-0.1 0,-0.1 0,-0.2 0,3.1 6.3,11.2 6.3,15.6 z m 4.1,7.6 c -0.7,1.3 -1.7,2.7 -3,3.7 -0.2,0.2 -0.3,0.2 -0.3,0.2 0,0 -0.1,0 -0.3,-0.2 -1.3,-1 -2.3,-2.4 -3,-3.7 l -0.5,-0.2 v 0.1 c 0,0.1 0.1,0.2 0.1,0.3 0.7,1.4 1.9,3 3.3,4.1 0.2,0.2 0.3,0.2 0.3,0.2 0,0 0.1,0 0.3,-0.2 1.4,-1.1 2.5,-2.8 3.3,-4.1 0.1,-0.1 0.1,-0.2 0.1,-0.3 v -0.1 z m -6.8,-7.2 z m 0,-0.2 v 0 c 0,-0.1 0,-0.1 0,-0.2 0,-0.1 0,-0.2 -0.1,-0.3 0,0.1 -0.1,0.2 -0.2,0.2 l 0.2,0.4 c 0.1,0 0.1,0 0.1,-0.1 v 0 m 0,0.2 -0.2,-0.4 c -0.2,0.2 -0.4,0.3 -0.7,0.3 -0.3,0 -0.6,-0.2 -0.8,-0.5 v 0 0 c -2.2,-4.8 -6.4,-7.1 -8.8,-7.1 -1.3,0 -2.4,1.1 -2.4,2.4 0,0.1 0,0.2 0,0.3 0.2,-1.2 1.2,-2.1 2.4,-2.1 2.4,0 6.5,2.3 8.8,7.1 v 0 0 c 0.1,0.3 0.5,0.5 0.8,0.5 0.4,0 0.7,-0.2 0.9,-0.5"
   id="path16" />
					</g>
				</g>
				<g
   opacity="0.7"
   id="g22">
					<g
   id="g21">
						<g
   id="g20">
							<g
   id="g19">
								<defs
   id="defs19" />
								<path
   fill="url(#SVGID_13_)"
   id="SVGID_11_"
   d="m 165,71.9 7.9,9.1 -0.5,0.9 -7.8,-9 z m -20,18.8 0.9,0.4 0.5,-11.9 -0.9,-0.6 z m 0.9,-20.4 0.9,-0.4 0.7,-16.8 -0.8,-2.4 z m -34.4,1.6 c -3.1,-2.8 -7.8,-2.6 -10.6,0.5 L 88.5,86 89.2,86.6 99,75.1 c 0.8,-0.9 1.6,-1.9 2.5,-2.8 0.8,-0.9 1.9,-1.5 3.1,-1.9 2.3,-0.8 5,-0.2 6.9,1.5 m 9.7,-2.5 -0.4,-0.5 c 3.2,5.8 2.3,13.4 -2.4,18.6 l -12.8,14.1 0.7,0.6 7.2,-8.3 3.6,-4.1 c 1.2,-1.4 2.5,-2.7 3.4,-4.4 1.9,-3.2 2.7,-7.1 2.3,-10.7 -0.2,-1.9 -0.8,-3.7 -1.6,-5.3 m -11.8,48.1 0.1,1.3 0.6,-0.7 c 1.9,-2.1 3.4,-3.7 5.9,-6 l -0.1,-1.2 c -2.2,2.2 -4.4,4.3 -6.5,6.6 m 139.9,-26.9 17,-41 v -2.4 l -17.5,42.1 z m 61.1,1.4 -0.5,1.5 1.1,-0.8 c 0.3,-0.2 0.5,-0.4 0.8,-0.6 0.3,-0.2 0.5,-0.4 0.8,-0.6 l 3.7,-2.9 0.5,-1.4 c 0.1,0 -4.4,3.3 -6.4,4.8 M 219.5,63.8 c 1.8,-0.1 3.6,-0.6 5.2,-1.5 1.6,-0.8 3.1,-2 4.3,-3.4 1.2,-1.4 2.2,-3 2.7,-4.8 0.6,-1.7 0.7,-3.6 0.3,-5.4 0,7.3 -5.7,13.3 -12.5,15.1 M 198.3,41.3 v 15 h 0.9 V 42.2 Z m 0,36.9 0.9,0.9 V 65.3 l -0.9,-0.9 z"
   style="fill:url(#SVGID_13_)" />
							
							</g>
						</g>
					</g>
				</g>
				<polygon
   fill="#ffffff"
   points="176.6,340.1 176.7,340.1 177.2,337.7 171.2,336.4 170.6,338.8 170.6,338.9 176.6,340.2 "
   id="polygon22" />
				<path
   fill="#ffffff"
   d="m 199.6,339.4 h -0.2 v 2.4 0 0.2 l 5.4,0.1 -0.2,1.8 c -0.1,1.5 -2.1,2.8 -5,2.8 -4.3,-0.1 -7.1,-3 -7,-6.3 0,-1.3 0.4,-2.5 1.1,-3.5 0.3,-0.5 1,-1.1 1.5,-1.4 0.2,-0.1 0.3,-0.2 0.5,-0.3 1.1,-0.7 2.5,-1 4.2,-1 3.1,0.1 4.4,1.6 5.2,2.4 v 0 0 0 c 0,0 0,0 0.1,0.1 v 0 0 l 1.7,-1.7 v 0 l 0.1,-0.1 c -1,-1 -3.1,-3.1 -7.1,-3.2 h -0.1 v 0 c -5.4,-0.1 -9.4,3.8 -9.5,8.7 v 0.1 c 0,0 0,0 0,0.1 -0.1,5.8 4.7,8.9 9.2,9 1.9,0 3.5,-0.3 4.8,-1 0.4,-0.2 0.7,-0.4 1,-0.7 0.5,-0.4 0.9,-0.8 1.2,-1.3 0.4,-0.6 0.6,-1.3 0.6,-2.1 l 0.1,-4.5 z"
   id="path22" />
				<path
   fill="#ffffff"
   d="m 94.9,300.6 c 0.6,-0.6 0.6,-1.7 0.8,-2.5 0.3,-2 -0.6,-4.1 -3,-7.4 l -1.6,-2.1 c -1.3,-1.7 -0.9,-3 -0.7,-3.6 0.1,-0.2 0.3,-0.4 0.5,-0.6 0.2,-0.2 0.5,-0.3 0.8,-0.3 0.1,0 0.2,0 0.3,0 2.9,0 7.3,4.6 8.3,8.4 v 0.1 0 0 l 0.1,-0.1 c 0.6,-0.3 1.1,-0.5 1.5,-0.8 h 0.1 c -0.5,-1.9 -1.6,-4 -2.9,-5.7 -2.2,-2.8 -5.2,-4.8 -7.7,-4.8 -0.9,0 -1.7,0.3 -2.4,0.8 -0.2,0.2 -0.4,0.3 -0.6,0.5 -0.3,0.4 -0.5,0.8 -0.7,1.3 -0.1,0.2 -0.1,0.4 -0.1,0.7 0,0.2 0,0.4 0,0.6 0,1.4 0.8,3.3 1.9,4.8 l 1.6,2.2 c 1.2,1.6 2.4,3.1 2.4,4.5 0,0.2 0,0.3 -0.1,0.7 0,0.1 -0.1,0.4 -0.2,0.5 -0.1,0.3 -0.3,0.5 -0.5,0.7 -0.1,0.1 -0.2,0.2 -0.4,0.3 -0.3,0.2 -0.7,0.3 -1.1,0.3 -1.4,0 -3.3,-1.4 -5.1,-3.7 -1.4,-1.8 -2.7,-4.2 -3.6,-6.9 l -0.1,-0.2 -1.9,1.8 c 0,0 0.9,3.3 3,6.2 1.9,2.5 4.2,4.5 6.2,5.1 0.7,0.2 1.3,0.3 1.9,0.3 v 0 0 c 0.9,0 1.8,0 2.3,-0.4 0.6,-0.3 0.8,-0.5 1,-0.7"
   id="path23" />
				<polygon
   fill="#ffffff"
   points="130.4,313 130.4,313 130.4,313 130.4,313 130.4,313 122.4,328.1 122.5,328.2 122.4,328.2 122.5,328.2 122.5,328.2 122.5,328.2 124.5,329.2 124.6,329 124.7,329 130.8,317.3 133.8,333.3 136,334.3 136.1,334.1 136.1,334.2 143.8,320 141.6,318.8 141.5,318.9 135.5,330.4 132.6,314.1 132.5,314.1 "
   id="polygon23" />
				<path
   fill="#ffffff"
   d="m 113.6,300.8 -2.1,-1.8 -17.1,8.1 1.8,1.6 6,-2.7 6.1,5.2 -1.9,6 v 0 0 0 0.1 l 1.8,1.3 0.1,-0.2 v 0 0 0 z m -2.7,1.1 -2,6.7 -4.1,-3.5 z"
   id="path24" />
				<polygon
   fill="#ffffff"
   points="115.7,323.8 125.2,309.4 123.1,308 113.5,322.6 115.6,323.9 "
   id="polygon24" />
				<polygon
   fill="#ffffff"
   points="155.4,327 161.2,328.9 161.2,328.8 161.3,328.9 161.3,328.7 161.3,328.8 162.1,326.7 148.5,322 147.7,324.3 153.6,326.3 148.7,340.1 148.7,340.2 150.7,340.7 150.7,340.6 150.8,340.6 "
   id="polygon25" />
				<polygon
   fill="#ffffff"
   points="221,336.7 221,336.7 215.4,337.5 214.8,333.3 226,331.7 226,331.6 226,331.6 226,331.6 226,331.6 226.1,331.6 226.1,331.5 226.2,331.5 225.8,329.1 225.7,329.1 225.6,329.1 212.1,331.1 212.1,331.1 212.1,331.1 212.1,331.2 212.1,331.2 212.1,331.3 212.1,331.4 214.5,348 214.5,348 214.5,348 228.5,346 228.5,345.9 228.5,345.9 228.5,345.9 228.6,345.9 228.6,345.9 228.6,345.8 228.3,343.4 228.2,343.4 216.5,345.1 215.7,340.1 221.4,339.3 221.4,339.2 221.5,339.2 221.5,339.1 221.2,336.7 "
   id="polygon26" />
				<path
   fill="#ffffff"
   d="m 245.1,333.9 c 0.6,-0.3 1.5,-0.6 2,-1.3 0.7,-1 1.2,-2.5 0.6,-4.5 -0.4,-1.5 -1.1,-2.5 -2.2,-3 -1.3,-0.7 -2.8,-0.8 -4.2,-0.3 l -9.6,2.9 1.4,4.7 3.5,11.7 0.8,-0.2 1.2,-0.3 -2,-6.8 6.5,-2.1 5.1,6 2,-0.9 v 0 l 0.2,-0.1 z M 242,327 c 1.4,-0.4 2.9,-0.1 3.5,1.8 0.1,0.2 0.1,0.4 0.1,0.5 0,0.2 0,0.3 0,0.5 0,0.2 0,0.3 -0.1,0.5 -0.3,0.8 -1,1.3 -2.1,1.7 l -7.6,2.3 -1.4,-4.6 z"
   id="path26" />
				<path
   fill="#ffffff"
   d="m 277.9,305.7 -2.3,1.6 3.7,18.4 2,-1.3 0.1,-0.1 -1.2,-6.2 6.3,-4.6 5.3,3.2 1.9,-1.3 v 0 l 0.2,-0.1 z m 6.3,6.5 -4.5,3.1 -1.5,-6.6"
   id="path27" />
				<polygon
   fill="#ffffff"
   points="300,310 300.1,309.8 288.6,297.2 286.8,298.9 298.5,311.3 "
   id="polygon27" />
				<polygon
   fill="#ffffff"
   points="316.3,292.7 303.8,281.2 302.1,283 312.3,292 295.3,290.6 293.7,292.4 306.5,303.7 307.5,302.3 307.6,302.2 298.1,293.2 315,294.3 316.2,292.9 "
   id="polygon28" />
				<polygon
   fill="#ffffff"
   points="256,323.9 260.6,327.1 266.2,330.9 266.2,330.7 266.2,330.7 266.2,330.7 266.3,330.7 266.3,330.7 266.3,330.7 266.6,322.4 266.7,318.9 267.9,321.1 272.5,329.6 272.6,329.6 272.6,329.6 272.6,329.6 272.6,329.6 274,328.4 274.1,328.3 274.1,328.3 274.3,328.3 266.6,313.3 264.4,314.4 264,326.8 257.9,322.7 254,319.8 253.7,319.9 251.9,320.8 251.9,320.9 259.5,336.2 261.2,335.2 261.4,335.1 "
   id="polygon29" />
			</g>
		</g>
	</g>
</g></svg>
