<?xml version="1.0" encoding="UTF-8" standalone="no"?>
<!-- Generator: Adobe Illustrator 23.0.1, SVG Export Plug-In . SVG Version: 6.00 Build 0)  -->

<svg
   version="1.1"
   id="Layer_1"
   x="0px"
   y="0px"
   viewBox="0 0 100 100"
   xml:space="preserve"
   width="100"
   height="100"
   xmlns="http://www.w3.org/2000/svg"
   xmlns:svg="http://www.w3.org/2000/svg"><defs
   id="defs3" />
<style
   type="text/css"
   id="style1">
	.st0{fill-rule:evenodd;clip-rule:evenodd;}
	.st1{fill-rule:evenodd;clip-rule:evenodd;fill:#FFFFFF;}
</style>

<path
   class="st0"
   d="M 49.452429,99.384756 H 49.253283 C 43.079811,93.987953 36.209349,89.40763 29.856648,84.22989 17.171163,73.914223 13.526832,65.390861 11.316327,49.260181 10.001981,39.621609 9.384636,29.863547 7.9507997,20.224974 L 8.289342,19.527973 49.233366,-0.18729771 h 0.199146 L 90.695172,20.025828 c -1.613066,11.928733 -2.509214,23.95704 -4.401082,35.84594 -2.668537,13.501966 -7.826371,20.551668 -18.301351,28.995384 -10.47497,8.443705 -12.665558,9.339853 -18.560227,14.53752 z"
   id="path1"
   style="fill:#78ddd3;stroke-width:0.199144" /><path
   class="st7"
   d="m 48.97448,2.540979 1.035554,0.1194792 C 62.675592,9.0131592 75.619963,14.788338 88.205875,21.300351 86.951258,30.301662 86.314007,39.422463 85.099223,48.423773 82.709488,66.127685 79.045241,73.137565 65.184816,84.1104 59.967232,88.23268 54.51069,92.096084 49.332939,96.278103 42.163757,90.721987 34.875075,85.325184 27.865206,79.569912 17.330486,70.030912 15.139898,60.651226 13.36752,46.970031 11.59513,33.288825 11.65488,29.943203 10.440097,21.479581 c 0,-0.278803 0.159312,-0.358459 0.338542,-0.497866 0.796574,-0.597428 3.106652,-1.553315 4.162113,-2.071098 C 26.232224,13.334585 37.722842,8.1767511 48.97448,2.540979 Z"
   id="path2"
   style="fill:#0033a0;stroke-width:0.199144" /><path
   class="st8"
   d="m 67.69403,29.684317 c -2.429557,-0.896148 -5.118,-1.573232 -7.467901,-2.58887 -1.234701,-0.537689 -3.564685,-1.394013 -3.066819,-3.066819 0.497855,-1.672816 1.294429,-0.876242 1.613066,-1.394013 -2.588881,-0.477949 -5.197668,-1.055461 -7.846277,-1.075378 L 49.651575,6.0259966 84.720847,22.973157 81.99257,48.423773 c -0.876231,5.954419 -1.871952,12.028307 -4.500655,17.48486 -4.759541,9.897458 -14.258718,15.473491 -22.54311,22.045255 -0.418199,0.05978 -0.278803,0 -0.298719,-0.29872 -0.159313,-1.17495 -0.17923,-3.465111 -0.219053,-4.759541 -0.318636,-12.824881 3.026986,-26.008221 5.17774,-38.574217 3.624424,-0.477949 7.388255,-0.896147 10.59447,-2.708359 -0.199146,-0.477949 -4.201935,-1.015638 -4.898948,-1.115211 -8.284392,-1.075377 -19.416551,-1.035544 -27.760683,-0.438116 -8.344143,0.597439 -8.682685,0.816492 -9.021227,1.553327 3.086735,1.712639 6.691243,2.270244 10.156344,2.588869 l 4.978604,34.232875 C 43.876396,67.123406 43.219218,55.891685 42.422643,44.62013 l 4.978605,0.199135 V 90.662248 L 33.401416,80.067777 C 23.006092,71.604155 19.222355,64.912912 17.151257,51.510509 15.697504,42.110906 15.179732,32.532084 13.885291,23.112564 L 49.03423,6.0459134 47.779613,21.599071 c -2.668527,-0.03985 -5.277313,0.557595 -7.8861,1.035544 1.453753,1.035554 2.568953,1.871951 0.716918,3.325705 -1.891869,1.473669 -7.169192,2.788016 -9.638572,3.743914 l 0.199135,0.199146 c 11.709681,-1.732556 24.594302,-1.732556 36.303973,0 0.577522,0.0796 0.637262,0 0.199146,-0.199146 z"
   id="path3"
   style="fill:#4fb74f;stroke-width:0.199144" /><path
   class="st2"
   d="m 51.324381,44.819265 c 1.732555,0 3.465111,-0.458032 5.197667,-0.09953 l -5.197667,22.702423 z"
   id="path4"
   style="fill:#4eb74f;stroke-width:0.199144" /><path
   class="st3"
   d="m 30.991765,29.684317 0.199146,0.199146 c -0.199146,0.03985 -0.617345,0.398282 -1.035544,0.199147 -0.05978,-0.318637 0.517772,-0.29872 0.836398,-0.41821 z"
   id="path5"
   style="fill:#246f7b;stroke-width:0.199144" /><path
   class="st6"
   d="m 67.69403,29.684317 c 0.318625,0.11949 0.896148,0.07971 0.836408,0.418199 -0.418209,0.199146 -0.836408,-0.17923 -1.035554,-0.199136 l 0.199146,-0.199146 z"
   id="path6"
   style="fill:#216a7e;stroke-width:0.199144" /><path
   class="st7"
   d="m 75.978422,35.519235 c 0.677096,1.095294 -2.130837,1.632983 -2.82785,1.77239 -4.241769,0.896148 -6.093804,-0.278803 -10.096604,-0.756752 -7.82636,-0.93597 -17.644162,-0.876231 -25.510356,-0.199146 -2.76811,0.23898 -4.958687,0.935981 -7.527651,1.394013 -1.055461,0.17923 -6.452264,-0.557605 -7.109442,-1.29444 -0.836408,-0.935971 0.776657,-1.374086 1.493576,-1.613066 5.436636,-1.852035 15.134959,-2.29015 21.009711,-2.449474 8.105163,-0.199135 19.058092,0.07971 26.904369,1.951619 0.557595,0.139396 3.485018,0.916064 3.664247,1.194856 z"
   id="path7"
   style="fill:#0033a0;stroke-width:0.199144" /><path
   class="st7"
   d="m 34.237813,54.85613 c 0.935982,0.935982 0.776669,2.290162 0.318637,3.385456 -0.458033,1.095294 -1.553327,2.788016 -1.692723,2.867672 -0.438115,0.258886 -1.35418,0.01993 -1.871962,0.09953 l 1.035554,-2.071098 c -5.05826,-0.836409 -0.916064,-7.408162 2.210494,-4.281603 z"
   id="path8"
   style="fill:#0033a0;stroke-width:0.199144" /><path
   class="st7"
   d="m 68.112229,59.974141 2.310077,-5.576043 1.852035,0.07971 -1.652899,4.042634 h 1.035554 c 0,0 0.11949,-1.254607 0.11949,-1.254607 2.250328,-0.318636 0.995721,0.935971 1.334264,1.254607 0.338542,0.318625 0.756741,-0.07971 0.836408,0 0.07971,0.07971 0.05978,1.413919 0,1.453753 -0.07971,0.07971 -0.756752,-0.07971 -0.836408,0 -0.07971,0.07971 0.0796,1.17495 0,1.254607 -0.07971,0.07971 -1.394014,0.05978 -1.453754,0 -0.05978,-0.05978 0.03986,-0.995721 0,-1.254607 h -3.524851 z"
   id="path9"
   style="fill:#0033a0;stroke-width:0.199144" /><path
   class="st5"
   d="m 68.530438,54.159129 -2.927423,6.71116 c -0.418199,0.537689 -1.453753,0.378365 -2.051181,0.238969 0.258886,-0.697001 2.52913,-5.05826 2.270244,-5.29723 h -2.688454 c -0.01993,-0.338553 -0.0796,-1.652899 0.318636,-1.652899 z"
   id="path10"
   style="fill:#0134a0;stroke-width:0.199144" /><path
   class="st1"
   d="m 28.502468,61.208831 h -1.871952 v -4.978604 l -1.652899,0.617345 c 0.01993,-0.517772 -0.139396,-1.1152 0.199146,-1.573232 0.338542,-0.458032 3.325705,-1.6529 3.325705,-0.816491 z"
   id="path11"
   style="fill:#01359f;stroke-width:0.199144" /><path
   class="st4"
   d="m 31.748516,55.851851 c 1.951609,-0.697001 2.051182,2.369818 0.219064,1.812212 -0.756752,-0.238969 -0.896148,-1.573232 -0.219064,-1.812212 z"
   id="path12"
   style="fill:#4eb650;stroke-width:0.199144" /></svg>
